<?xml version="1.0" encoding="UTF-8"?>
<svg xmlns="http://www.w3.org/2000/svg" xmlns:xlink="http://www.w3.org/1999/xlink" viewBox="0 0 150 150" width="150px" height="150px">
<g id="surface1727397">
<path style="fill-rule:nonzero;fill:rgb(0%,0%,0%);fill-opacity:1;stroke-width:14;stroke-linecap:butt;stroke-linejoin:round;stroke:rgb(80.000001%,80.000001%,80.000001%);stroke-opacity:1;stroke-miterlimit:10;" d="M 172.000969 30.9584 L 172.000969 37.840428 L -0.000974879 37.840428 L -0.000974879 30.9584 Z M 172.000969 82.558983 L 172.000969 89.441011 L -0.000974879 89.441011 L -0.000974879 82.558983 Z M 172.000969 134.159567 L 172.000969 141.041594 L -0.000974879 141.041594 L -0.000974879 134.159567 Z M 172.000969 134.159567 " transform="matrix(0.801454,0,0,0.801454,6.075,6.075)"/>
<path style=" stroke:none;fill-rule:nonzero;fill:rgb(0%,0%,0%);fill-opacity:1;" d="M 6.074219 30.886719 L 6.074219 36.402344 L 143.925781 36.402344 L 143.925781 30.886719 Z M 6.074219 72.242188 L 6.074219 77.757812 L 143.925781 77.757812 L 143.925781 72.242188 Z M 6.074219 113.597656 L 6.074219 119.113281 L 143.925781 119.113281 L 143.925781 113.597656 Z M 6.074219 113.597656 "/>
</g>
</svg>
